<?xml version="1.0" standalone="no"?><!DOCTYPE svg PUBLIC "-//W3C//DTD SVG 1.1//EN" "http://www.w3.org/Graphics/SVG/1.1/DTD/svg11.dtd"><svg t="1714288944411" class="icon" viewBox="0 0 1194 1024" version="1.1" xmlns="http://www.w3.org/2000/svg" p-id="4335" xmlns:xlink="http://www.w3.org/1999/xlink" width="55.96875" height="48"><path d="M1194.332493 628.481787c-0.485319 11.386328-15.567537 24.149282-46.55445 40.319968-63.765771 33.189513-394.054451 169.044974-464.319529 205.670219-70.336242 36.624078-109.349582 36.282255-164.901097 9.706378-55.549182-26.546711-406.967901-168.563155-470.285685-198.764924C16.650172 670.292711 0.522651 657.523924-0.001167 645.502948v120.773242c0 12.058308 16.612839 24.827095 48.271732 39.983978 63.318951 30.2776 414.812334 172.21938 470.290352 198.763758 55.551515 26.58171 94.566022 26.9177 164.901097-9.74371 70.29891-36.624078 400.550258-172.443373 464.319529-205.670219 32.405537-16.874165 46.74111-30.016274 46.741111-41.925254 0-11.236999 0.037332-119.05596 0.037332-119.05596-0.037332-0.037332-0.186661-0.037332-0.261326-0.116664z m-0.037333-196.858647c-0.559983 11.386328-15.567537 24.080451-46.479784 40.282635-63.765771 33.189513-394.054451 169.044974-464.31953 205.670219-70.336242 36.624078-109.349582 36.282255-164.901097 9.74371S111.626848 518.756549 48.309064 488.516282C16.687504 473.436396 0.559983 460.627944 0.037332 448.6443v120.773243c0 12.058308 16.612839 24.789763 48.271732 39.909313 63.317784 30.2776 414.73767 172.21938 470.289185 198.762591 55.551515 26.58171 94.566022 26.9177 164.901097-9.706378 70.29891-36.624078 400.550258-172.480706 464.31953-205.669052 32.405537-16.916164 46.74111-30.053607 46.74111-41.962586 0-11.236999 0.037332-119.05596 0.037332-119.05596-0.037332-0.037332-0.186661 0-0.298658-0.037332z m0-204.214262c0.597316-12.132973-15.268879-22.811155-47.226429-34.532307-62.123153-22.739991-390.392394-153.406273-453.264524-176.478754-62.869798-22.997816-88.442371-22.064511-162.325174 4.442535C457.595062 47.382396 108.080287 184.473321 45.882469 208.81393c-31.098909 12.249636-46.330456 23.5578-45.807805 35.582276v120.770909c0 12.058308 16.612839 24.789763 48.271732 39.909314 63.317784 30.2776 414.73767 172.294044 470.289185 198.799923s94.566022 26.880368 164.901098-9.74371c70.29891-36.624078 400.550258-172.480706 464.319529-205.670219 32.405537-16.916164 46.74111-30.053607 46.74111-41.962586 0-11.199667 0.037332-119.05596 0.037332-119.055961z m-766.529711 114.314768l276.826604-42.52257-83.625348 122.600189z m612.192467-110.432217l-181.434606 71.640537-163.631802-64.661745 181.29461-71.680202zM559.366203 112.681122l-26.76837-49.392865 83.514517 32.665695 78.732492-25.795399-21.317866 51.034316 80.229282 30.053606-103.488424 10.75168-23.184477 55.738177-37.448887-62.160486-119.494614-10.750513z m-206.227868 69.62693c81.72257 0 147.952268 25.685736 147.952268 57.344628s-66.264697 57.344628-147.952268 57.344629-147.9896-25.723069-147.989601-57.344629c0-31.658892 66.264697-57.344628 147.989601-57.344628z" fill="#D82C20" p-id="4336"></path></svg>